<svg width="33" height="33" viewBox="0 0 33 33" fill="none" xmlns="http://www.w3.org/2000/svg">
<g clip-path="url(#clip0_145_344)">
<path d="M30.6125 32.7998C31.5837 32.7998 32.375 32.0085 32.375 31.0373V2.56226C32.375 1.59111 31.5837 0.799805 30.6125 0.799805H2.13746C1.16631 0.799805 0.375 1.59111 0.375 2.56226V31.0254C0.375 31.9965 1.16631 32.7878 2.13746 32.7878H30.6125V32.7998Z" fill="#3C5A99"/>
<path d="M22.4598 32.7998V20.4027H26.6201L27.2436 15.5709H22.4598V12.4896C22.4598 11.0868 22.8435 10.1396 24.8577 10.1396H27.4115V5.82342C26.9678 5.76348 25.4452 5.63159 23.6827 5.63159C19.9899 5.63159 17.4722 7.88562 17.4722 12.01V15.5709H13.2998V20.4027H17.4722V32.7998H22.4598Z" fill="white"/>
</g>
<defs>
<clipPath id="clip0_145_344">
<rect width="32" height="32" fill="white" transform="translate(0.375 0.799805)"/>
</clipPath>
</defs>
</svg>
