<svg width="33" height="33" viewBox="0 0 33 33" fill="none" xmlns="http://www.w3.org/2000/svg">
<g clip-path="url(#clip0_145_348)">
<path d="M31.9177 7.1998C30.7748 7.65695 29.632 8.11407 28.2606 8.11407C29.632 7.42836 30.5463 6.05693 31.0034 4.6855C29.8606 5.37122 28.4892 6.05696 26.8892 6.28553C25.7463 5.14267 24.1463 4.22833 22.3177 4.22833C18.8892 4.22833 16.1463 6.97123 16.1463 10.6284C16.1463 11.0855 16.1463 11.5427 16.3749 11.9998C10.8891 11.7712 6.31775 9.2569 3.11775 5.37119C2.6606 6.28548 2.2034 7.42839 2.2034 8.57125C2.2034 10.857 3.34629 12.6855 4.94629 13.8284C3.80343 13.8284 2.88917 13.5998 1.97489 13.1427C1.97489 16.3427 4.26056 18.8569 7.00342 19.3141C6.77485 19.5426 6.08912 19.7712 5.63198 19.7712C5.17483 19.7712 4.71769 19.7712 4.48912 19.5426C5.17483 22.0569 7.68913 23.8855 10.432 23.8855C8.14628 25.7141 5.40342 26.6284 2.43199 26.6284C1.97485 26.6284 1.51775 26.6284 0.832031 26.6284C3.57489 28.4569 7.00343 29.5998 10.6606 29.5998C22.3177 29.5998 28.7177 19.7712 28.7177 11.5426C28.7177 11.3141 28.7177 11.0855 28.7177 10.6284C30.0891 9.71409 31.232 8.57123 31.9177 7.1998Z" fill="#60A9DC"/>
</g>
<defs>
<clipPath id="clip0_145_348">
<rect width="32" height="26.0571" fill="white" transform="translate(0.375 3.77124)"/>
</clipPath>
</defs>
</svg>
