<svg width="33" height="33" viewBox="0 0 33 33" fill="none" xmlns="http://www.w3.org/2000/svg">
<g clip-path="url(#clip0_145_351)">
<path d="M29.3031 1.18384H3.44721C1.91121 1.18384 0.887207 2.46384 0.887207 3.74384V29.8558C0.887207 31.3918 2.16721 32.4158 3.44721 32.4158H29.3031C30.8391 32.4158 31.8631 31.1358 31.8631 29.8558V3.74384C32.1191 2.46384 30.8391 1.18384 29.3031 1.18384ZM10.6152 27.2958H6.00721V13.4718H10.6152V27.2958ZM8.31119 11.6799C6.77519 11.6799 5.75119 10.6558 5.75119 9.37579C5.75119 8.09579 6.77519 7.07181 8.31119 7.07181C9.84719 7.07181 10.8712 8.09579 10.8712 9.37579C10.8712 10.3998 9.84719 11.6799 8.31119 11.6799ZM26.9992 27.2958H22.3912V19.8718C22.3912 18.0798 21.6232 16.7999 20.0872 16.7999C18.8072 16.7999 18.0391 17.5678 17.7831 18.5918C17.7831 18.8478 17.5272 19.3598 17.5272 19.6158V27.2958H12.9192C12.9192 27.2958 12.9192 14.7518 12.9192 13.4718H17.5272V15.5199C18.2952 14.4959 19.3191 13.2158 21.6231 13.2158C24.6951 13.2158 26.9992 15.2639 26.9992 19.3599V27.2958Z" fill="#016699"/>
</g>
<defs>
<clipPath id="clip0_145_351">
<rect width="32" height="32.256" fill="white" transform="translate(0.375 0.671814)"/>
</clipPath>
</defs>
</svg>
