<svg width="33" height="33" viewBox="0 0 33 33" fill="none" xmlns="http://www.w3.org/2000/svg">
<g clip-path="url(#clip0_145_355)">
<path fill-rule="evenodd" clip-rule="evenodd" d="M16.2339 14.3618C16.3579 14.3618 16.4549 14.3288 16.5269 14.2608C16.6009 14.1928 16.6379 14.0968 16.6379 13.9778V11.5478C16.6379 11.4498 16.6009 11.3718 16.5269 11.3118C16.4519 11.2508 16.3549 11.2218 16.2339 11.2218C16.1229 11.2218 16.0319 11.2508 15.9619 11.3118C15.8939 11.3718 15.8589 11.4498 15.8589 11.5478V13.9778C15.8589 14.1008 15.8919 14.1948 15.9559 14.2608C16.0209 14.3308 16.1129 14.3618 16.2339 14.3618Z" fill="#42526E"/>
<path fill-rule="evenodd" clip-rule="evenodd" d="M18.2001 22.0008C18.2001 22.1318 18.1771 22.2238 18.1311 22.2798C18.0841 22.3388 18.0121 22.3678 17.9121 22.3678C17.8441 22.3678 17.7791 22.3528 17.7171 22.3228C17.6541 22.2958 17.5901 22.2448 17.5251 22.1808V19.6568C17.5801 19.6008 17.6351 19.5598 17.6921 19.5318C17.7481 19.5068 17.8061 19.4928 17.8631 19.4928C17.9721 19.4928 18.0571 19.5288 18.1151 19.5988C18.1731 19.6688 18.2001 19.7728 18.2001 19.9108V22.0008ZM18.2451 18.8508C18.1191 18.8508 17.9951 18.8818 17.8711 18.9458C17.7501 19.0108 17.6341 19.1068 17.5251 19.2278V17.4598H16.7061V22.9498H17.5251V22.6398C17.6301 22.7648 17.7471 22.8548 17.8711 22.9128C17.9941 22.9738 18.1351 23.0008 18.2941 23.0008C18.5331 23.0008 18.7181 22.9268 18.8441 22.7728C18.9721 22.6178 19.0341 22.3998 19.0341 22.1138V19.8658C19.0341 19.5338 18.9681 19.2818 18.8321 19.1088C18.6971 18.9368 18.5021 18.8508 18.2451 18.8508Z" fill="#42526E"/>
<path fill-rule="evenodd" clip-rule="evenodd" d="M10.6309 18.2588H11.5739V22.9498H12.4859V18.2588H13.4309V17.4598H10.6309V18.2588Z" fill="#42526E"/>
<path fill-rule="evenodd" clip-rule="evenodd" d="M15.2881 21.9758C15.2121 22.0638 15.1291 22.1358 15.0371 22.1948C14.9461 22.2508 14.8701 22.2788 14.8121 22.2788C14.7361 22.2788 14.6811 22.2588 14.6461 22.2138C14.6131 22.1708 14.5961 22.1028 14.5961 22.0068V18.8998H13.7861V22.2858C13.7861 22.5288 13.8341 22.7058 13.9281 22.8268C14.0241 22.9498 14.1631 23.0088 14.3521 23.0088C14.5031 23.0088 14.6601 22.9678 14.8211 22.8798C14.9841 22.7938 15.1391 22.6688 15.2881 22.5048V22.9498H16.0981V18.8998H15.2881V21.9758Z" fill="#42526E"/>
<path fill-rule="evenodd" clip-rule="evenodd" d="M24.375 21.7018C24.375 23.3158 23.066 24.6258 21.452 24.6258H11.297C9.683 24.6258 8.375 23.3158 8.375 21.7018V19.3528C8.375 17.7388 9.683 16.4288 11.297 16.4288H21.452C23.066 16.4288 24.375 17.7388 24.375 19.3528V21.7018ZM12.439 8.9758L13.105 11.3938H13.169L13.805 8.9758H14.847L13.652 12.5148V15.0228H12.627V12.6258L11.405 8.9758H12.439ZM14.921 11.5808C14.921 11.2358 15.044 10.9598 15.288 10.7568C15.533 10.5518 15.864 10.4498 16.278 10.4498C16.655 10.4498 16.964 10.5578 17.206 10.7728C17.445 10.9868 17.566 11.2688 17.566 11.6068V13.9108C17.566 14.2938 17.448 14.5908 17.213 14.8098C16.976 15.0268 16.651 15.1358 16.236 15.1358C15.838 15.1358 15.519 15.0228 15.279 14.7978C15.041 14.5728 14.921 14.2728 14.921 13.8938V11.5808ZM18.305 10.5618H19.215V13.9818C19.215 14.0868 19.236 14.1628 19.274 14.2098C19.311 14.2588 19.374 14.2818 19.459 14.2818C19.526 14.2818 19.611 14.2508 19.714 14.1888C19.816 14.1238 19.909 14.0458 19.994 13.9478V10.5618H20.906V15.0228H19.994V14.5288C19.827 14.7098 19.652 14.8508 19.47 14.9448C19.288 15.0378 19.112 15.0888 18.942 15.0888C18.73 15.0888 18.572 15.0208 18.465 14.8858C18.359 14.7548 18.305 14.5558 18.305 14.2898V10.5618ZM16.375 0.799805C7.539 0.799805 0.375 7.96381 0.375 16.7998C0.375 25.6378 7.539 32.7998 16.375 32.7998C25.212 32.7998 32.375 25.6378 32.375 16.7998C32.375 7.96381 25.212 0.799805 16.375 0.799805Z" fill="#42526E"/>
<path fill-rule="evenodd" clip-rule="evenodd" d="M21.009 20.3918H20.293V19.9838C20.293 19.8138 20.32 19.6908 20.377 19.6198C20.434 19.5438 20.526 19.5068 20.654 19.5068C20.777 19.5068 20.869 19.5438 20.924 19.6198C20.98 19.6908 21.009 19.8138 21.009 19.9838V20.3918ZM19.803 19.1298C19.573 19.3508 19.459 19.6398 19.459 19.9888V21.8078C19.459 22.1978 19.565 22.5048 19.772 22.7258C19.98 22.9498 20.266 23.0598 20.628 23.0598C21.031 23.0598 21.335 22.9558 21.536 22.7468C21.741 22.5358 21.842 22.2238 21.842 21.8078V21.6008H21.009V21.7838C21.009 22.0228 20.981 22.1768 20.929 22.2468C20.875 22.3178 20.781 22.3528 20.647 22.3528C20.518 22.3528 20.426 22.3118 20.372 22.2298C20.319 22.1458 20.293 21.9968 20.293 21.7838V21.0228H21.842V19.9888C21.842 19.6048 21.742 19.3118 21.543 19.1068C21.345 18.9018 21.06 18.7998 20.689 18.7998C20.326 18.7998 20.032 18.9088 19.803 19.1298Z" fill="#42526E"/>
</g>
<defs>
<clipPath id="clip0_145_355">
<rect width="32" height="32" fill="white" transform="translate(0.375 0.799805)"/>
</clipPath>
</defs>
</svg>
