<svg width="30" height="39" viewBox="0 0 30 39" fill="none" xmlns="http://www.w3.org/2000/svg">
<path fill-rule="evenodd" clip-rule="evenodd" d="M14.309 0.277598C14.6957 -0.0925329 15.3053 -0.0925324 15.692 0.277598L29.6555 13.6433C29.8697 13.8483 29.9657 14.1047 29.9661 14.3565C29.9882 14.4392 30 14.5261 30 14.6157V37.6157C30 38.168 29.5523 38.6157 29 38.6157L21.0005 38.6157V24.6157C21.0005 24.0634 20.5528 23.6157 20.0005 23.6157H10.0005C9.44818 23.6157 9.00047 24.0634 9.00047 24.6157V38.6157L1 38.6157C0.447716 38.6157 0 38.168 0 37.6157V14.6157C0 14.5247 0.0121574 14.4366 0.0349388 14.3528C0.036272 14.1021 0.132399 13.8473 0.345463 13.6433L14.309 0.277598Z" fill="#4F46E5"/>
</svg>
