<svg width="36" height="37" viewBox="0 0 36 37" fill="none" xmlns="http://www.w3.org/2000/svg">
<path fill-rule="evenodd" clip-rule="evenodd" d="M27 6.80688H9C5.68629 6.80688 3 9.49112 3 12.8023V26.2919C3 29.6031 5.68629 32.2873 9 32.2873H27C30.3137 32.2873 33 29.6031 33 26.2919V12.8023C33 9.49112 30.3137 6.80688 27 6.80688ZM9 9.19006H27C28.5986 9.19311 30.0037 10.2492 30.45 11.7831L19.14 20.1616C18.83 20.4645 18.4098 20.6277 17.9765 20.6136C17.5432 20.5994 17.1345 20.4091 16.845 20.0867L5.58 11.7981C6.01763 10.2688 7.40836 9.20829 9 9.19006ZM9 29.9042H27C28.9906 29.8959 30.6 28.2811 30.6 26.2919V14.2562L20.4 21.7504C19.7481 22.3568 18.8907 22.6942 18 22.6947C17.0741 22.68 16.1867 22.3221 15.51 21.6905L5.385 14.1962V26.2919C5.385 28.2869 7.00349 29.9042 9 29.9042Z" fill="#A3A3A3"/>
</svg>
