<svg width="37" height="30" viewBox="0 0 37 30" fill="none" xmlns="http://www.w3.org/2000/svg">
<path d="M20.6939 17.5398C20.6939 16.412 19.5791 15.4977 18.2039 15.4977C16.8287 15.4977 15.7139 16.412 15.7139 17.5398C15.7118 18.0179 15.9195 18.4808 16.2989 18.8438C16.6812 19.1705 16.8137 19.6431 16.6439 20.074L16.3289 20.8367C16.2071 21.1797 16.2876 21.5497 16.5466 21.8369C16.8056 22.1241 17.2133 22.2957 17.6489 22.3006H18.7589C19.2089 22.3005 19.6312 22.1224 19.893 21.8222C20.1548 21.5221 20.224 21.1368 20.0789 20.7875L19.7039 20.0248C19.534 19.5939 19.6666 19.1213 20.0489 18.7946C20.4369 18.4514 20.6652 18.0072 20.6939 17.5398V17.5398Z" fill="#A3A3A3"/>
<path fill-rule="evenodd" clip-rule="evenodd" d="M25.329 10.4293V6.59112C25.3298 5.58842 24.8331 4.62861 23.9532 3.93246C23.0732 3.23632 21.8858 2.86379 20.664 2.90056H15.744C14.5222 2.86379 13.3347 3.23632 12.4548 3.93246C11.5748 4.62861 11.0781 5.58842 11.079 6.59112V10.4293C7.97174 11.3265 6.08205 13.9095 6.57897 16.5803L8.00397 23.6784C8.70681 26.5059 11.7763 28.5157 15.294 28.4516H21.114C24.6568 28.5245 27.7482 26.4931 28.434 23.6415L29.859 16.5433C30.3289 13.8786 28.4293 11.3148 25.329 10.4293ZM13.329 6.59112C13.3858 5.54255 14.4652 4.72878 15.744 4.77044H20.664C21.9428 4.72878 23.0222 5.54255 23.079 6.59112V9.99875H22.539H13.869H13.329V6.59112ZM25.704 23.2725L27.204 16.1497C27.3528 15.2282 26.9957 14.3 26.229 13.6155C25.2965 12.7483 23.9486 12.2585 22.539 12.2746H13.869C12.4641 12.2523 11.1169 12.7328 10.179 13.5909C9.4305 14.2919 9.10072 15.2295 9.27897 16.1497L10.704 23.2725C11.169 25.0271 13.1065 26.2526 15.294 26.1757H21.114C23.3014 26.2526 25.2389 25.0271 25.704 23.2725Z" fill="#A3A3A3"/>
</svg>
