<svg width="36" height="31" viewBox="0 0 36 31" fill="none" xmlns="http://www.w3.org/2000/svg">
<path fill-rule="evenodd" clip-rule="evenodd" d="M9 5.61133H27C30.3137 5.61133 33 7.81442 33 10.5321V21.6038C33 24.3214 30.3137 26.5245 27 26.5245H9C5.68629 26.5245 3 24.3214 3 21.6038V10.5321C3 7.81442 5.68629 5.61133 9 5.61133ZM20.1 17.3596L29.61 11.5777C30.0344 11.3218 30.1281 10.8333 29.82 10.4829C29.6731 10.3156 29.4499 10.2042 29.2012 10.1741C28.9525 10.1439 28.6996 10.1976 28.5 10.323L18.885 16.0679C18.6444 16.2748 18.311 16.3918 17.9625 16.3918C17.614 16.3918 17.2806 16.2748 17.04 16.0679L7.5 10.323C7.30137 10.2016 7.05191 10.1502 6.80693 10.1802C6.56195 10.2103 6.34169 10.3192 6.195 10.4829C5.88363 10.8301 5.97055 11.3181 6.39 11.5777L15.84 17.2981C16.428 17.7556 17.2045 18.0147 18.015 18.0239C18.7868 18.0238 19.5305 17.7868 20.1 17.3596Z" fill="#A3A3A3"/>
</svg>
