<svg width="36" height="31" viewBox="0 0 36 31" fill="none" xmlns="http://www.w3.org/2000/svg">
<path d="M20.1939 17.7397C20.1939 16.6119 19.0791 15.6976 17.7039 15.6976C16.3287 15.6976 15.2139 16.6119 15.2139 17.7397C15.2118 18.2179 15.4195 18.6807 15.7989 19.0437C16.1812 19.3705 16.3137 19.843 16.1439 20.2739L15.8289 21.0367C15.7071 21.3796 15.7876 21.7496 16.0466 22.0369C16.3056 22.3241 16.7133 22.4956 17.1489 22.5006H18.2589C18.7089 22.5005 19.1312 22.3223 19.393 22.0222C19.6548 21.7221 19.724 21.3368 19.5789 20.9874L19.2039 20.2247C19.034 19.7938 19.1666 19.3213 19.5489 18.9945C19.9369 18.6514 20.1652 18.2071 20.1939 17.7397V17.7397Z" fill="#A3A3A3"/>
<path fill-rule="evenodd" clip-rule="evenodd" d="M24.829 10.6293V6.79107C24.8298 5.78837 24.3331 4.82856 23.4532 4.13242C22.5732 3.43628 21.3858 3.06374 20.164 3.10051H15.244C14.0222 3.06374 12.8347 3.43628 11.9548 4.13242C11.0748 4.82856 10.5781 5.78837 10.579 6.79107V10.6293C7.47174 11.5265 5.58205 14.1095 6.07897 16.7802L7.50397 23.8784C8.20681 26.7059 11.2763 28.7156 14.794 28.6515H20.614C24.1568 28.7244 27.2482 26.693 27.934 23.8415L29.359 16.7433C29.8289 14.0786 27.9293 11.5147 24.829 10.6293ZM12.829 6.79107C12.8858 5.7425 13.9652 4.92873 15.244 4.97039H20.164C21.4428 4.92873 22.5222 5.7425 22.579 6.79107V10.1987H22.039H13.369H12.829V6.79107ZM25.204 23.4724L26.704 16.3496C26.8528 15.4282 26.4957 14.5 25.729 13.8155C24.7965 12.9482 23.4486 12.4584 22.039 12.4745H13.369C11.9641 12.4522 10.6169 12.9328 9.67897 13.7908C8.9305 14.4918 8.60072 15.4294 8.77897 16.3496L10.204 23.4724C10.669 25.2271 12.6065 26.4526 14.794 26.3757H20.614C22.8014 26.4526 24.7389 25.2271 25.204 23.4724Z" fill="#A3A3A3"/>
</svg>
