<svg width="36" height="31" viewBox="0 0 36 31" fill="none" xmlns="http://www.w3.org/2000/svg">
<path fill-rule="evenodd" clip-rule="evenodd" d="M24.8273 9.62938V5.7912C24.8281 4.78849 24.3314 3.82868 23.4515 3.13254C22.5715 2.4364 21.3841 2.06386 20.1623 2.10063H15.2423C14.0205 2.06386 12.833 2.4364 11.9531 3.13254C11.0731 3.82868 10.5764 4.78849 10.5773 5.7912V9.62938C7.47404 10.5306 5.58655 13.1106 6.07727 15.7803L7.50227 22.8785C8.18725 25.7322 11.2769 27.7676 14.8223 27.7009H20.6423C24.1877 27.7676 27.2773 25.7322 27.9623 22.8785L29.3873 15.7803C29.8707 13.0971 27.9544 10.5123 24.8273 9.62938ZM19.2023 19.2372L19.5173 19.9999C19.6554 20.349 19.5832 20.7311 19.3228 21.0296C19.0624 21.3281 18.6447 21.5075 18.1973 21.513H17.0873C16.6398 21.5075 16.2221 21.3281 15.9617 21.0296C15.7013 20.7311 15.6292 20.349 15.7673 19.9999L16.0823 19.2372C16.2521 18.8063 16.1196 18.3337 15.7373 18.007C14.8873 17.1788 14.973 15.9505 15.9326 15.2073C16.8922 14.464 18.3923 14.464 19.3519 15.2073C20.3116 15.9505 20.3973 17.1788 19.5473 18.007C19.165 18.3337 19.0324 18.8063 19.2023 19.2372ZM12.8273 9.21112H13.3673V9.22342H22.5773V5.7912C22.5205 4.74262 21.4411 3.92885 20.1623 3.97052H15.2423C13.9635 3.92885 12.8841 4.74262 12.8273 5.7912V9.21112Z" fill="#A3A3A3"/>
</svg>
