<svg width="37" height="31" viewBox="0 0 37 31" fill="none" xmlns="http://www.w3.org/2000/svg">
<path fill-rule="evenodd" clip-rule="evenodd" d="M25.3273 5.59124V9.42943C28.4544 10.3123 30.3707 12.8972 29.8873 15.5804L28.4623 22.6786C27.7773 25.5322 24.6877 27.5676 21.1423 27.5009H15.3223C11.7769 27.5676 8.68725 25.5322 8.00227 22.6786L6.57727 15.5804C6.08655 12.9106 7.97404 10.3307 11.0773 9.42943V5.59124C11.0764 4.58854 11.5731 3.62873 12.4531 2.93259C13.333 2.23645 14.5205 1.86391 15.7423 1.90068H20.6623C21.8841 1.86391 23.0715 2.23645 23.9515 2.93259C24.8314 3.62873 25.3281 4.58854 25.3273 5.59124ZM13.3273 9.01117H13.8673V9.02347H23.0773V5.59124C23.0205 4.54267 21.9411 3.7289 20.6623 3.77057H15.7423C14.4635 3.7289 13.3841 4.54267 13.3273 5.59124V9.01117Z" fill="#A3A3A3"/>
</svg>
