<svg width="36" height="31" viewBox="0 0 36 31" fill="none" xmlns="http://www.w3.org/2000/svg">
<path fill-rule="evenodd" clip-rule="evenodd" d="M27 5.61133H9C5.68629 5.61133 3 7.81442 3 10.5321V21.6038C3 24.3214 5.68629 26.5245 9 26.5245H27C30.3137 26.5245 33 24.3214 33 21.6038V10.5321C33 7.81442 30.3137 5.61133 27 5.61133ZM9 7.56733H27C28.5986 7.56983 30.0037 8.43661 30.45 9.69555L19.14 16.5723C18.83 16.8209 18.4098 16.9548 17.9765 16.9432C17.5432 16.9316 17.1345 16.7754 16.845 16.5108L5.58 9.70786C6.01763 8.45273 7.40836 7.58229 9 7.56733ZM9 24.5685H27C28.9906 24.5618 30.6 23.2364 30.6 21.6038V11.7254L20.4 17.8763C19.7481 18.374 18.8907 18.6509 18 18.6513C17.0741 18.6392 16.1867 18.3455 15.51 17.8271L5.385 11.6762V21.6038C5.385 23.2412 7.00349 24.5685 9 24.5685Z" fill="#A3A3A3"/>
</svg>
