<svg width="36" height="37" viewBox="0 0 36 37" fill="none" xmlns="http://www.w3.org/2000/svg">
<path d="M20.1939 21.0439C20.1939 19.6698 19.0791 18.5558 17.7039 18.5558C16.3287 18.5558 15.2139 19.6698 15.2139 21.0439C15.2118 21.6265 15.4195 22.1904 15.7989 22.6327C16.1812 23.0308 16.3137 23.6066 16.1439 24.1316L15.8289 25.0609C15.7071 25.4788 15.7876 25.9295 16.0466 26.2795C16.3056 26.6295 16.7133 26.8385 17.1489 26.8445H18.2589C18.7089 26.8444 19.1312 26.6273 19.393 26.2616C19.6548 25.896 19.724 25.4265 19.5789 25.0009L19.2039 24.0716C19.034 23.5466 19.1666 22.9709 19.5489 22.5728C19.9369 22.1546 20.1652 21.6134 20.1939 21.0439Z" fill="#A3A3A3"/>
<path fill-rule="evenodd" clip-rule="evenodd" d="M24.829 12.3806V7.70417C24.8298 6.48249 24.3331 5.31306 23.4532 4.46489C22.5732 3.61672 21.3858 3.16282 20.164 3.20762H15.244C14.0222 3.16282 12.8347 3.61672 11.9548 4.46489C11.0748 5.31306 10.5781 6.48249 10.579 7.70417V12.3806C7.47174 13.4738 5.58205 16.6208 6.07897 19.8748L7.50397 28.5232C8.20681 31.9682 11.2763 34.4169 14.794 34.3387H20.614C24.1568 34.4276 27.2482 31.9525 27.934 28.4782L29.359 19.8299C29.8289 16.5832 27.9293 13.4594 24.829 12.3806ZM12.829 7.70417C12.8858 6.4266 13.9652 5.43511 15.244 5.48587H20.164C21.4428 5.43511 22.5222 6.4266 22.579 7.70417V11.856H22.039H13.369H12.829V7.70417ZM25.204 28.0286L26.704 19.3502C26.8528 18.2275 26.4957 17.0966 25.729 16.2626C24.7965 15.206 23.4486 14.6092 22.039 14.6289H13.369C11.9641 14.6017 10.6169 15.1871 9.67897 16.2326C8.9305 17.0867 8.60072 18.229 8.77897 19.3502L10.204 28.0286C10.669 30.1664 12.6065 31.6596 14.794 31.5659H20.614C22.8014 31.6596 24.7389 30.1664 25.204 28.0286Z" fill="#A3A3A3"/>
</svg>
