<svg width="36" height="31" viewBox="0 0 36 31" fill="none" xmlns="http://www.w3.org/2000/svg">
<path fill-rule="evenodd" clip-rule="evenodd" d="M9 5.43396H27C30.3137 5.43396 33 7.63706 33 10.3547V21.4264C33 24.1441 30.3137 26.3472 27 26.3472H9C5.68629 26.3472 3 24.1441 3 21.4264V10.3547C3 7.63706 5.68629 5.43396 9 5.43396ZM20.1 17.1823L29.61 11.4004C30.0344 11.1445 30.1281 10.6559 29.82 10.3055C29.6731 10.1382 29.4499 10.0268 29.2012 9.99668C28.9525 9.96656 28.6996 10.0203 28.5 10.1456L18.885 15.8906C18.6444 16.0974 18.311 16.2144 17.9625 16.2144C17.614 16.2144 17.2806 16.0974 17.04 15.8906L7.5 10.1456C7.30137 10.0242 7.05191 9.97284 6.80693 10.0029C6.56195 10.0329 6.34169 10.1418 6.195 10.3055C5.88363 10.6527 5.97055 11.1407 6.39 11.4004L15.84 17.1208C16.428 17.5782 17.2045 17.8374 18.015 17.8466C18.7868 17.8464 19.5305 17.6095 20.1 17.1823Z" fill="#A3A3A3"/>
</svg>
