<svg width="33" height="37" viewBox="0 0 33 37" fill="none" xmlns="http://www.w3.org/2000/svg">
<path d="M0.131192 6.47746L0.474463 7.5297C0.564802 7.80662 0.869148 7.95087 1.14069 7.84548C1.33597 7.76969 1.46463 7.58174 1.46463 7.37227V6.4417C1.46463 6.19975 1.51166 5.9601 1.60311 5.73609L1.77679 5.31063C1.90291 5.00168 2.09287 4.72286 2.33424 4.49244L2.3663 4.46185C2.7864 4.0608 3.34487 3.83704 3.92566 3.83704C4.11501 3.83704 4.30361 3.86085 4.48702 3.90792L5.43186 4.1504C5.6854 4.21546 5.93344 4.30034 6.17369 4.40424L6.62467 4.59928C6.99741 4.76048 7.38839 4.87566 7.78898 4.9423L8.42616 5.04828C8.6973 5.09338 8.9717 5.11605 9.24657 5.11605H9.56914C10.0226 5.11605 10.4739 5.05437 10.9107 4.93272L12.1592 4.58498C12.1999 4.57365 12.2419 4.5679 12.2842 4.5679C12.6928 4.5679 12.9035 5.05648 12.6229 5.3536L11.2462 6.81169C11.1638 6.89897 11.0936 6.997 11.0375 7.10311L10.2524 8.58766L9.791 9.78498C9.64151 10.1729 9.54097 10.578 9.49173 10.9908L9.33703 12.2877L9.08807 13.9027C9.07108 14.0129 9.07204 14.1252 9.09092 14.2351C9.21129 14.9359 8.60436 15.546 7.90294 15.4294L7.7807 15.409C7.71988 15.3989 7.65834 15.3938 7.59669 15.3938H7.30408C6.5063 15.3938 5.72185 15.5985 5.02574 15.9882L4.38826 16.3451C4.27052 16.411 4.16239 16.4928 4.06688 16.5881L3.37158 17.282C3.17796 17.4753 3.17796 17.7889 3.37157 17.9822C3.51831 18.1286 3.7408 18.168 3.92889 18.0809L4.7438 17.7033C4.84595 17.6559 4.95235 17.6184 5.06159 17.5911L5.45353 17.4933C5.69212 17.4338 5.9371 17.4037 6.183 17.4037C6.83402 17.4037 7.46752 17.6145 7.9887 18.0046L8.08686 18.0781C8.57554 18.4439 8.9561 18.9351 9.18818 19.4997L9.51293 20.2897C9.54806 20.3752 9.5713 20.4651 9.582 20.5569L9.62298 20.9086C9.69741 21.5475 9.0375 22.017 8.45828 21.7373C8.40351 21.7109 8.34595 21.6906 8.28668 21.677L7.81374 21.5681C7.39987 21.4727 6.97048 21.4664 6.554 21.5496L6.20287 21.6197C5.9468 21.6708 5.70742 21.7846 5.50619 21.951L4.69978 22.6179C4.43488 22.8369 4.40988 23.2341 4.64522 23.4847C4.79974 23.6492 5.03396 23.7122 5.25016 23.6475L5.63743 23.5315C5.7537 23.4967 5.87442 23.479 5.99578 23.479H6.15585C6.58986 23.479 7.01534 23.5996 7.38481 23.8274L7.71036 24.028C8.14917 24.2985 8.52645 24.6579 8.81792 25.0831L8.91324 25.2221C9.33836 25.8422 9.56588 26.5764 9.56588 27.3283C9.56588 27.803 9.47513 28.2733 9.29853 28.714L9.03561 29.37C8.90131 29.705 8.73111 30.0246 8.52799 30.3231L7.59574 31.6928C7.32392 32.0922 6.99564 32.4501 6.62116 32.7553L4.43967 34.5333L2.78186 35.7742C2.4947 35.9892 2.45906 36.4064 2.70561 36.6669C2.89168 36.8635 3.18636 36.9112 3.42493 36.7833L5.78496 35.5177C5.98622 35.4098 6.19614 35.3189 6.41253 35.2459L9.33703 34.2593L11.8649 33.4775C12.3434 33.3296 12.8413 33.2543 13.3421 33.2543H15.516H18.0695C18.6511 33.2543 19.2284 33.3558 19.7752 33.5543L22.473 34.5333L25.3255 35.7842C25.4375 35.8334 25.5459 35.8905 25.6496 35.9553C26.6349 36.5698 27.9115 36.4378 28.7502 35.6346L32.4325 32.1078C32.7397 31.8135 32.734 31.3209 32.4202 31.0337C32.13 30.7683 31.6823 30.778 31.404 31.0558L30.6927 31.7657C30.112 32.3452 29.2114 32.455 28.5085 32.0318L27.0707 31.1663C26.9045 31.0663 26.7312 30.9787 26.5521 30.9042L24.0749 29.8741L22.86 29.4793C22.361 29.3172 21.8395 29.2346 21.3148 29.2346H19.7174C19.3888 29.2346 19.061 29.267 18.7387 29.3313L16.0194 29.8741C15.4237 29.9856 15.0671 29.2342 15.5301 28.8431L17.3122 27.3382C17.3657 27.2931 17.415 27.2434 17.4599 27.1897L19.2233 25.0778L21.0083 22.3827L21.8061 20.724C22.0056 20.3092 22.1469 19.8688 22.2259 19.4152L22.3653 18.6151C22.4368 18.205 22.4568 17.7876 22.4248 17.3725L22.1068 13.2469L21.7864 9.54691L21.5481 7.64457C21.4638 6.97089 21.5175 6.28708 21.706 5.63483L21.8175 5.24899C22.0082 4.58938 22.3376 3.97813 22.7837 3.45617C23.2127 2.95412 23.7404 2.54563 24.3339 2.25603L25.3641 1.7534C25.4502 1.71139 25.5413 1.68063 25.6353 1.66188L26.337 1.52181C26.801 1.4292 27.0155 0.889291 26.7417 0.503462C26.6192 0.330913 26.4207 0.228395 26.2092 0.228395H24.6477C24.2681 0.228395 23.8908 0.287175 23.5293 0.402644L22.2793 0.801832C21.9516 0.906504 21.6355 1.04473 21.3362 1.2143L20.5557 1.65638C20.2481 1.83065 19.9598 2.03706 19.6956 2.27215L19.1661 2.74354C18.6603 3.19377 18.2512 3.74205 17.9636 4.35514L17.6143 5.09987C17.4669 5.41433 17.3525 5.7433 17.2732 6.08145L17.0211 7.15661C16.9334 7.53079 16.889 7.91384 16.889 8.29818V10.3691L17.3925 17.084V19.1865C17.3925 19.4895 17.365 19.7919 17.3102 20.0899L16.9879 21.8443C16.9222 22.2022 16.8176 22.5518 16.676 22.887L15.5623 25.5228C15.3797 25.9548 15.1373 26.359 14.8422 26.7235L12.6331 29.4513C12.6023 29.4894 12.5668 29.5234 12.5275 29.5527C12.0172 29.9321 11.3531 29.3404 11.6713 28.7899L12.9489 26.5798C12.982 26.5226 13.0099 26.4626 13.0323 26.4005L13.8225 24.2099L14.3069 22.7292C14.4711 22.2273 14.5548 21.7026 14.5548 21.1744V19.0938V15.8963L14.1886 12.7901L13.9071 11.2802C13.8508 10.978 13.8225 10.6713 13.8225 10.3639V8.50157C13.8225 8.19418 13.8508 7.88745 13.9071 7.58527L14.0651 6.73776C14.1471 6.29811 14.2877 5.87145 14.4831 5.46918L14.6934 5.03626C14.8447 4.72486 15.0279 4.43002 15.2401 4.15647L15.8382 3.38548C15.9588 3.23 16.0922 3.08484 16.2369 2.95151L18.0803 1.25329C18.2653 1.08282 18.3027 0.804704 18.1691 0.591469C18.0369 0.380347 17.7741 0.29187 17.5411 0.380063L16.6144 0.730864L15.0114 1.36476C14.4678 1.57974 13.8884 1.69012 13.3039 1.69012C12.8286 1.69012 12.3561 1.61715 11.9029 1.47375L9.19911 0.618146C8.95577 0.541141 8.70689 0.482882 8.45465 0.443881L6.79152 0.186723C5.99812 0.0640462 5.18685 0.134221 4.42631 0.391315L3.90458 0.567677C3.14353 0.824941 2.45568 1.2618 1.89925 1.84126L1.61666 2.13556C0.978498 2.80015 0.536381 3.62814 0.339113 4.52815L0.0905668 5.66211C0.031266 5.93266 0.0452911 6.21414 0.131192 6.47746Z" fill="url(#paint0_linear_145_466)"/>
<defs>
<linearGradient id="paint0_linear_145_466" x1="16.5" y1="0" x2="16.5" y2="37" gradientUnits="userSpaceOnUse">
<stop offset="0.482292" stop-color="#4F46E5"/>
<stop offset="1" stop-color="#161C2D"/>
</linearGradient>
</defs>
</svg>
