<svg width="52" height="48" viewBox="0 0 52 48" fill="none" xmlns="http://www.w3.org/2000/svg">
<path d="M1.08614 8.55635L1.54091 9.70215C1.69663 10.0945 2.12944 10.2993 2.53158 10.1711C2.8646 10.0648 3.09067 9.7554 3.09067 9.40584V8.41159C3.09067 8.07761 3.16798 7.74815 3.31654 7.44902L3.505 7.06956C3.74449 6.58736 4.08855 6.16468 4.51212 5.83233C5.14934 5.33234 5.93588 5.0606 6.74584 5.0606H6.90825C7.19183 5.0606 7.47464 5.0901 7.75212 5.14863L9.8105 5.58282L11.4464 6.16432C11.7696 6.27923 12.1039 6.36056 12.4438 6.40703L14.479 6.68529H16.1068C16.4823 6.68529 16.8566 6.643 17.2226 6.55921L19.6435 6.00501C19.69 5.99436 19.7375 5.98899 19.7852 5.98899C20.3723 5.98899 20.645 6.71746 20.2021 7.10298L18.1911 8.85365C18.0748 8.95489 17.9734 9.07209 17.89 9.20176L16.6718 11.0952L15.9254 12.6871C15.7168 13.132 15.5749 13.6053 15.5043 14.0916L15.2571 15.7952L14.8796 17.8079C14.8486 17.9731 14.8504 18.1428 14.8848 18.3073C15.0663 19.176 14.333 19.9627 13.4537 19.8424L12.7106 19.7408H11.3302C10.6085 19.7408 9.8955 19.897 9.23997 20.1987L7.54093 20.9805C7.40406 21.0435 7.27581 21.1238 7.15933 21.2193L6.11882 22.0729C5.79637 22.3374 5.79637 22.8307 6.11882 23.0952C6.30213 23.2456 6.55192 23.2863 6.77348 23.2019L8.15306 22.6765C8.31463 22.615 8.4809 22.5666 8.65026 22.5319L9.31344 22.3959C9.64397 22.3281 9.98051 22.2939 10.3179 22.2939H10.5176C11.4428 22.2939 12.3497 22.5506 13.1377 23.0354L13.2648 23.1136C14.0585 23.6019 14.6999 24.3022 15.1167 25.1356L15.5134 25.9288C15.5779 26.0578 15.6211 26.1964 15.6413 26.3391L15.6508 26.4057C15.7906 27.392 14.813 28.1616 13.8871 27.7941C13.8103 27.7636 13.7308 27.7405 13.6497 27.7252L12.8004 27.5644C12.2263 27.4557 11.6376 27.4485 11.0609 27.5431L10.2408 27.6777C9.95735 27.7242 9.68744 27.8319 9.44987 27.9934L8.16625 28.8658C7.74559 29.1517 7.7086 29.7581 8.09138 30.093C8.28217 30.2599 8.54242 30.3233 8.78859 30.2627L9.54332 30.077C9.72079 30.0333 9.90289 30.0112 10.0857 30.0112H10.3344C11.013 30.0112 11.6821 30.171 12.2875 30.4778L12.8521 30.7638C13.4588 31.0712 13.9964 31.4991 14.432 32.0214L14.68 32.3187C15.2814 33.0398 15.6108 33.9489 15.6108 34.8879C15.6108 35.4971 15.472 36.0983 15.205 36.6458L14.7409 37.5975C14.5669 37.9544 14.3511 38.2892 14.0979 38.595L12.3965 40.6497C12.0888 41.0213 11.729 41.3463 11.3282 41.6148L7.68845 44.0532L5.21875 45.5726C4.7599 45.8549 4.70689 46.5014 5.11362 46.8547C5.34685 47.0573 5.67604 47.107 5.95871 46.9824L9.90342 45.2437C10.1241 45.1465 10.3516 45.0653 10.584 45.0008L15.2571 43.705L19.6731 42.5826C20.0757 42.4803 20.4894 42.4285 20.9048 42.4285H24.8063H29.3816C29.8656 42.4285 30.3471 42.4988 30.8109 42.6371L35.5581 44.0532L40.2266 45.7359C41.9508 46.6199 44.0319 46.4183 45.5543 45.2198L50.7869 41.1005C51.3123 40.6869 51.3035 39.8878 50.7691 39.486C50.3937 39.2037 49.874 39.2147 49.5108 39.5125L48.2658 40.5339C47.3334 41.2987 46.0396 41.4465 44.9588 40.9117L42.2779 39.5853L38.0338 38.1347L35.6262 37.4916C35.2053 37.3792 34.7716 37.3223 34.336 37.3223H30.9433C30.6721 37.3223 30.4014 37.3444 30.1338 37.3883L25.5844 38.1347C24.7525 38.2626 24.3197 37.178 25.0112 36.6981L27.5995 34.9015C27.6707 34.8521 27.7375 34.7967 27.7993 34.7359L30.5359 32.0421L33.0606 28.9089C33.2164 28.7157 33.3575 28.5111 33.4828 28.2968L34.584 26.4149C34.8544 25.9529 35.0488 25.4504 35.1598 24.9268L35.4001 23.7935C35.5048 23.2995 35.5341 22.7925 35.4869 22.2897L34.9922 17.0137L34.4971 12.3137L34.1192 9.83428C33.9958 9.02393 34.0734 8.19566 34.3453 7.42238L34.5979 6.70406C34.8572 5.96684 35.2856 5.30065 35.8489 4.75894L36.342 4.28463C36.8053 3.83904 37.3502 3.48698 37.9468 3.24771L40.0724 2.39529C40.1749 2.35418 40.2816 2.32442 40.3906 2.30654L41.6108 2.10633C42.2434 2.00256 42.5178 1.24595 42.0989 0.760817C41.9431 0.580373 41.7165 0.476647 41.4781 0.476647H38.6791C38.2507 0.476647 37.824 0.531713 37.4096 0.640491L34.9311 1.2911C34.6423 1.36691 34.3609 1.46843 34.0902 1.59446L32.3253 2.41618C32.029 2.5541 31.747 2.72073 31.4833 2.91368L30.1241 3.90815C29.5562 4.32362 29.0824 4.85427 28.7337 5.46541L28.0061 6.74055C27.8071 7.08927 27.6508 7.46069 27.5406 7.84679L27.1203 9.32021C26.993 9.76636 26.9284 10.2281 26.9284 10.692V13.3581L27.7065 21.8878V24.5852C27.7065 24.9521 27.6661 25.3178 27.5861 25.6758L27.0682 27.9932C26.9754 28.4084 26.8299 28.8102 26.6354 29.1886L24.8018 32.7554C24.5704 33.2057 24.2719 33.6181 23.9167 33.9787L20.353 37.5957C20.304 37.6454 20.2492 37.6889 20.1897 37.7252C19.3976 38.2094 18.5096 37.2624 19.0436 36.503L20.8296 33.9636C20.887 33.882 20.9361 33.7948 20.9762 33.7035L22.1891 30.9396L22.9664 28.987C23.2006 28.3986 23.3209 27.7711 23.3209 27.1378V24.4408V20.7358C23.3209 20.4983 23.304 20.2611 23.2703 20.026L22.755 16.4334L22.313 14.4844C22.2307 14.1215 22.1891 13.7506 22.1891 13.3785V10.9588C22.1891 10.5867 22.2307 10.2157 22.313 9.85285L22.5818 8.6677C22.6966 8.16152 22.8895 7.67631 23.1536 7.2295L23.6024 6.4702C23.7914 6.15039 24.0155 5.85264 24.2705 5.58247L25.3416 4.44752C25.5032 4.27629 25.6788 4.11879 25.8665 3.97665L28.7146 1.82002C29.017 1.59104 29.0759 1.15997 28.846 0.858238C28.6715 0.629119 28.3723 0.533597 28.0972 0.619176L26.504 1.11492L23.5084 2.08857C23.0093 2.2508 22.4877 2.33344 21.9629 2.33344H20.9189C20.4942 2.33344 20.0713 2.27933 19.6603 2.17243L14.479 0.824795L10.4556 0.313463C9.79638 0.229677 9.12704 0.278155 8.48673 0.456062L6.14081 1.10787C5.43635 1.3036 4.78339 1.65145 4.22794 2.1269L2.99711 3.18046C2.22876 3.83814 1.67793 4.71338 1.41733 5.69062L1.00805 7.22545C0.890573 7.66597 0.917955 8.1326 1.08614 8.55635Z" fill="url(#paint0_linear_145_302)"/>
<defs>
<linearGradient id="paint0_linear_145_302" x1="26.3271" y1="0.186523" x2="26.3271" y2="47.1865" gradientUnits="userSpaceOnUse">
<stop stop-color="#4F46E5"/>
<stop offset="1" stop-color="white"/>
</linearGradient>
</defs>
</svg>
