<svg width="6" height="8" viewBox="0 0 6 8" fill="none" xmlns="http://www.w3.org/2000/svg">
<path d="M5.69388 2.53979C5.69388 1.41197 4.57907 0.497681 3.20388 0.497681C1.82869 0.497681 0.713882 1.41197 0.713882 2.53979C0.711827 3.01794 0.919455 3.48076 1.29888 3.84379C1.6812 4.17053 1.81373 4.6431 1.64388 5.07398L1.32888 5.8367C1.20706 6.17969 1.28759 6.54966 1.54659 6.8369C1.80559 7.12414 2.21332 7.29567 2.64888 7.30062H3.75888C4.20887 7.30051 4.63116 7.12239 4.89299 6.82224C5.15482 6.5221 5.22404 6.13681 5.07888 5.78749L4.70388 5.02478C4.53404 4.59389 4.66657 4.12132 5.04888 3.79459C5.43686 3.45141 5.6652 3.00719 5.69388 2.53979V2.53979Z" fill="white"/>
</svg>
