<svg width="36" height="31" viewBox="0 0 36 31" fill="none" xmlns="http://www.w3.org/2000/svg">
<path fill-rule="evenodd" clip-rule="evenodd" d="M29.3699 21.0697L29.7299 22.4721C30.071 23.6845 29.7342 24.9586 28.8114 25.9463C27.8885 26.934 26.4761 27.5321 24.9599 27.5774H11.0399C9.52366 27.5321 8.11125 26.934 7.18842 25.9463C6.26559 24.9586 5.92875 23.6845 6.2699 22.4721L6.6299 21.0697C7.04395 19.1712 9.03383 17.7761 11.3849 17.7358H24.6149C26.966 17.7761 28.9558 19.1712 29.3699 21.0697ZM24.9599 25.7198C25.7216 25.7125 26.4384 25.4231 26.9099 24.9324V24.9447C27.4884 24.3496 27.7138 23.574 27.5249 22.8288L27.1649 21.4264C26.9652 20.3871 25.8969 19.6089 24.6149 19.5688H11.3849C10.1029 19.6089 9.03465 20.3871 8.8349 21.4264L8.4749 22.8288C8.29064 23.5701 8.5158 24.3403 9.0899 24.9324C9.5614 25.4231 10.2782 25.7125 11.0399 25.7198H24.9599Z" fill="#A3A3A3"/>
<path fill-rule="evenodd" clip-rule="evenodd" d="M18.75 15.2754H17.25C13.9363 15.2754 11.25 13.0723 11.25 10.3547V7.10698C11.246 6.00972 11.7758 4.95646 12.7218 4.18058C13.6679 3.4047 14.9521 2.97026 16.29 2.97354H19.71C21.048 2.97026 22.3322 3.4047 23.2783 4.18058C24.2243 4.95646 24.754 6.00972 24.75 7.10698V10.3547C24.75 13.0723 22.0637 15.2754 18.75 15.2754ZM16.29 4.81883C14.7492 4.81883 13.5 5.84327 13.5 7.10698V10.3547C13.5 12.0532 15.179 13.4302 17.25 13.4302H18.75C20.8211 13.4302 22.5 12.0532 22.5 10.3547V7.10698C22.5 6.50013 22.2061 5.91813 21.6829 5.48901C21.1596 5.0599 20.45 4.81883 19.71 4.81883H16.29Z" fill="#A3A3A3"/>
</svg>
