<svg width="33" height="30" viewBox="0 0 33 30" fill="none" xmlns="http://www.w3.org/2000/svg">
<path fill-rule="evenodd" clip-rule="evenodd" d="M4.39443 0.876953H28.5051L32.5236 8.99396V29.2865H0.375977V8.99396L4.39443 0.876953ZM4.86861 8.99396H12.4313V11.0232C12.4313 11.5614 12.643 12.0775 13.0198 12.4581C13.3966 12.8387 13.9077 13.0525 14.4406 13.0525H18.459C18.9919 13.0525 19.5029 12.8387 19.8797 12.4581C20.2566 12.0775 20.4682 11.5614 20.4682 11.0232V8.99396H28.031L26.0217 4.93546H6.87783L4.86861 8.99396ZM28.5051 13.0525H24.1451C23.7292 14.2397 22.959 15.2676 21.9407 15.9944C20.9224 16.7212 19.706 17.1113 18.459 17.111H14.4406C13.1936 17.1113 11.9772 16.7212 10.9589 15.9944C9.94054 15.2676 9.17038 14.2397 8.75445 13.0525H4.39443V25.228H28.5051V13.0525Z" fill="#161C2D"/>
</svg>
