<svg width="33" height="30" viewBox="0 0 33 30" fill="none" xmlns="http://www.w3.org/2000/svg">
<path fill-rule="evenodd" clip-rule="evenodd" d="M4.39443 0.876221H28.5051L32.5236 8.99323V29.2857H0.375977V8.99323L4.39443 0.876221ZM4.86861 8.99323H12.4313V11.0225C12.4313 11.5607 12.643 12.0768 13.0198 12.4574C13.3966 12.8379 13.9077 13.0517 14.4406 13.0517H18.459C18.9919 13.0517 19.5029 12.8379 19.8797 12.4574C20.2566 12.0768 20.4682 11.5607 20.4682 11.0225V8.99323H28.031L26.0217 4.93472H6.87783L4.86861 8.99323ZM28.5051 13.0517H24.1451C23.7292 14.239 22.959 15.2668 21.9407 15.9937C20.9224 16.7205 19.706 17.1106 18.459 17.1102H14.4406C13.1936 17.1106 11.9772 16.7205 10.9589 15.9937C9.94054 15.2668 9.17038 14.239 8.75445 13.0517H4.39443V25.2272H28.5051V13.0517Z" fill="#161C2D"/>
</svg>
