<svg width="33" height="30" viewBox="0 0 33 30" fill="none" xmlns="http://www.w3.org/2000/svg">
<path fill-rule="evenodd" clip-rule="evenodd" d="M4.39443 0.875977H28.5051L32.5236 8.99298V29.2855H0.375977V8.99298L4.39443 0.875977ZM4.86861 8.99298H12.4313V11.0222C12.4313 11.5604 12.643 12.0766 13.0198 12.4571C13.3966 12.8377 13.9077 13.0515 14.4406 13.0515H18.459C18.9919 13.0515 19.5029 12.8377 19.8797 12.4571C20.2566 12.0766 20.4682 11.5604 20.4682 11.0222V8.99298H28.031L26.0217 4.93448H6.87783L4.86861 8.99298ZM28.5051 13.0515H24.1451C23.7292 14.2388 22.959 15.2666 21.9407 15.9934C20.9224 16.7203 19.706 17.1104 18.459 17.11H14.4406C13.1936 17.1104 11.9772 16.7203 10.9589 15.9934C9.94054 15.2666 9.17038 14.2388 8.75445 13.0515H4.39443V25.227H28.5051V13.0515Z" fill="#161C2D"/>
</svg>
