<svg width="33" height="30" viewBox="0 0 33 30" fill="none" xmlns="http://www.w3.org/2000/svg">
<path fill-rule="evenodd" clip-rule="evenodd" d="M4.39492 0.876221H28.5056L32.5241 8.99323V29.2857H0.376465V8.99323L4.39492 0.876221ZM4.86909 8.99323H12.4318V11.0225C12.4318 11.5607 12.6435 12.0768 13.0203 12.4574C13.3971 12.8379 13.9082 13.0517 14.441 13.0517H18.4595C18.9924 13.0517 19.5034 12.8379 19.8802 12.4574C20.257 12.0768 20.4687 11.5607 20.4687 11.0225V8.99323H28.0315L26.0222 4.93472H6.87832L4.86909 8.99323ZM28.5056 13.0517H24.1456C23.7297 14.239 22.9595 15.2668 21.9412 15.9937C20.9229 16.7205 19.7065 17.1106 18.4595 17.1102H14.441C13.1941 17.1106 11.9777 16.7205 10.9594 15.9937C9.94103 15.2668 9.17087 14.239 8.75494 13.0517H4.39492V25.2272H28.5056V13.0517Z" fill="#161C2D"/>
</svg>
